<svg width="60" height="60" viewBox="0 0 60 60" xmlns="http://www.w3.org/2000/svg">
  <defs>
    <linearGradient id="iconGrad" x1="0%" y1="0%" x2="100%" y2="100%">
      <stop offset="0%" style="stop-color:#6366f1;stop-opacity:1" />
      <stop offset="100%" style="stop-color:#8b5cf6;stop-opacity:1" />
    </linearGradient>
  </defs>
  
  <!-- Background circle -->
  <circle cx="30" cy="30" r="28" fill="url(#iconGrad)" opacity="0.2" />
  
  <!-- Rocket body -->
  <path d="M 25 40 L 25 25 L 30 20 L 35 25 L 35 40 Z" fill="url(#iconGrad)" />
  
  <!-- Rocket tip -->
  <path d="M 30 20 L 27 12 L 30 10 L 33 12 Z" fill="#ec4899" />
  
  <!-- Rocket fins -->
  <path d="M 25 40 L 18 48 L 21 46 Z" fill="url(#iconGrad)" opacity="0.8" />
  <path d="M 35 40 L 42 48 L 39 46 Z" fill="url(#iconGrad)" opacity="0.8" />
  
  <!-- Circuit lines -->
  <path d="M 10 30 L 25 30" stroke="url(#iconGrad)" stroke-width="2.5" fill="none" />
  <path d="M 35 30 L 50 30" stroke="url(#iconGrad)" stroke-width="2.5" fill="none" />
  <path d="M 10 35 L 25 35" stroke="url(#iconGrad)" stroke-width="2.5" fill="none" />
  <path d="M 35 35 L 50 35" stroke="url(#iconGrad)" stroke-width="2.5" fill="none" />
  
  <!-- Circuit nodes -->
  <circle cx="10" cy="30" r="3" fill="#6366f1" />
  <circle cx="50" cy="30" r="3" fill="#6366f1" />
  <circle cx="10" cy="35" r="3" fill="#8b5cf6" />
  <circle cx="50" cy="35" r="3" fill="#8b5cf6" />
  
  <!-- Year badge -->
  <circle cx="45" cy="15" r="7" fill="#ec4899" />
  <text x="45" y="18" font-family="Arial, sans-serif" font-size="9" font-weight="bold" fill="white" text-anchor="middle">26</text>
</svg>

